<svg id="Layer_1" data-name="Layer 1" xmlns="http://www.w3.org/2000/svg" viewBox="0 0 130.76 221.24"><defs><style>.cls-1{fill:#764d2a;}.cls-2{fill:#8b5f3d;}.cls-3{fill:#a97d51;}.cls-4{fill:#603b17;}.cls-5{fill:#3c2415;}.cls-6{fill:#ec2227;}.cls-7{fill:#724d34;}.cls-8{fill:#3c2517;}</style></defs><title>cybor_spider_eye</title><path class="cls-1" d="M407.87,282.61l28.07,2.1,6.25-8.06s-33.64-3.86-33.64-3.39S407.87,282.61,407.87,282.61Z" transform="translate(-331.84 -174.75)"/><polygon class="cls-2" points="104.1 109.96 121.25 126.92 130.76 123.8 110.35 101.9 104.1 109.96"/><polygon class="cls-3" points="124.98 139.59 112.37 161.75 120.27 140.01 124.98 139.59"/><path class="cls-1" d="M405.31,266.36l13.26-18.64,8.15,2.75s-18.43,23.61-18.43,23.15S405.31,266.36,405.31,266.36Z" transform="translate(-331.84 -174.75)"/><polygon class="cls-2" points="86.72 72.96 91.02 37.93 97.46 39.18 94.87 75.71 86.72 72.96"/><polygon class="cls-3" points="91.48 25.49 80.43 0 87.49 26.2 91.48 25.49"/><path class="cls-2" d="M408.85,286.54,437,312l8.87-3.59s-36.28-31.72-36.28-31.25S408.85,286.54,408.85,286.54Z" transform="translate(-331.84 -174.75)"/><polygon class="cls-1" points="105.11 137.2 101.83 171.69 105.64 175.74 113.98 133.61 105.11 137.2"/><polygon class="cls-3" points="100.22 190.69 79.56 221.24 98.08 188.5 100.22 190.69"/><path class="cls-4" d="M407.73,271.82l22.4-2.9,5.62,5.49s-26.62,4.53-26.62,4.34Z" transform="translate(-331.84 -174.75)"/><polygon class="cls-1" points="98.28 94.17 109.5 81.32 118.64 83.44 103.91 99.66 98.28 94.17"/><polygon class="cls-2" points="112.5 73.69 101.13 59.03 108 75.26 112.5 73.69"/><polygon class="cls-1" points="91.48 25.49 97.46 39.18 91.02 37.93 87.49 26.2 91.48 25.49"/><polygon class="cls-4" points="108 75.26 109.5 81.32 118.64 83.44 112.5 73.69 108 75.26"/><polygon class="cls-1" points="121.25 126.92 120.27 140.01 124.98 139.59 130.76 123.8 121.25 126.92"/><path class="cls-2" d="M437.48,350.49l-5.42,14.95a21.39,21.39,0,0,1-2.15-2.19c-.1-.31,3.76-16.81,3.76-16.81Z" transform="translate(-331.84 -174.75)"/><path class="cls-1" d="M386.58,282.61l-28.07,2.1-6.25-8.06s33.64-3.86,33.64-3.39S386.58,282.61,386.58,282.61Z" transform="translate(-331.84 -174.75)"/><polygon class="cls-2" points="26.66 109.96 9.51 126.92 0 123.8 20.41 101.9 26.66 109.96"/><polygon class="cls-3" points="5.78 139.59 18.39 161.75 10.48 140.01 5.78 139.59"/><path class="cls-1" d="M389.14,266.36l-13.26-18.64-8.15,2.75s18.43,23.61,18.43,23.15S389.14,266.36,389.14,266.36Z" transform="translate(-331.84 -174.75)"/><polygon class="cls-2" points="44.04 72.96 39.74 37.93 33.3 39.18 35.89 75.71 44.04 72.96"/><polygon class="cls-3" points="39.28 25.49 50.33 0 43.27 26.2 39.28 25.49"/><path class="cls-2" d="M385.59,286.54,357.49,312l-8.87-3.59s36.28-31.72,36.28-31.25S385.59,286.54,385.59,286.54Z" transform="translate(-331.84 -174.75)"/><polygon class="cls-1" points="25.64 137.2 28.93 171.69 25.12 175.74 16.78 133.61 25.64 137.2"/><polygon class="cls-3" points="30.54 190.69 51.2 221.24 32.68 188.5 30.54 190.69"/><path class="cls-4" d="M386.71,271.82l-22.4-2.9-5.62,5.49s26.62,4.53,26.62,4.34Z" transform="translate(-331.84 -174.75)"/><polygon class="cls-1" points="32.47 94.17 21.26 81.32 12.12 83.44 26.85 99.66 32.47 94.17"/><polygon class="cls-2" points="18.26 73.69 29.63 59.03 22.76 75.26 18.26 73.69"/><polygon class="cls-1" points="39.28 25.49 33.3 39.18 39.74 37.93 43.27 26.2 39.28 25.49"/><polygon class="cls-4" points="22.76 75.26 21.26 81.32 12.12 83.44 18.26 73.69 22.76 75.26"/><polygon class="cls-1" points="9.51 126.92 10.48 140.01 5.78 139.59 0 123.8 9.51 126.92"/><path class="cls-2" d="M357,350.49l5.42,14.95a21.39,21.39,0,0,0,2.15-2.19c.1-.31-3.76-16.81-3.76-16.81Z" transform="translate(-331.84 -174.75)"/><path class="cls-5" d="M387.43,293.54l-1.5-8.73,11-5.19,12,2.82s-3.17,16-3.63,15.87S387.43,293.54,387.43,293.54Z" transform="translate(-331.84 -174.75)"/><polygon class="cls-6" points="58.63 129.49 65.41 139.34 72.17 129.55 58.63 129.49"/><polygon class="cls-6" points="72.2 149.05 65.41 139.34 58.63 149.05 72.2 149.05"/><polygon class="cls-3" points="58.63 129.49 72.17 129.55 65.39 110.3 58.63 129.49"/><polygon class="cls-4" points="58.63 149.05 72.2 149.05 65.47 157.08 58.63 149.05"/><polygon class="cls-3" points="65.36 108.75 65.55 86.93 54.8 92.7 65.36 108.75"/><polygon class="cls-2" points="54.8 92.7 52.83 101.74 65.36 108.75 54.8 92.7"/><polygon class="cls-4" points="52.83 101.74 65.36 108.75 53.75 111.79 52.83 101.74"/><polygon class="cls-2" points="65.36 108.75 65.55 86.93 76.31 92.7 65.36 108.75"/><polygon class="cls-1" points="76.31 92.7 78.28 101.74 65.36 108.75 76.31 92.7"/><polygon class="cls-4" points="78.28 101.74 65.36 108.75 77.03 111.88 78.28 101.74"/><polygon class="cls-4" points="63.5 86.55 60.71 82.88 64.78 77.58 58.48 82.41 57.97 89.65 63.5 86.55"/><polygon class="cls-4" points="67.89 86.67 71.08 82.88 67.01 77.58 73.32 82.41 73.13 89.53 67.89 86.67"/><polygon class="cls-1" points="72.2 149.05 65.37 157.08 76.21 167.44 72.2 149.05"/><polygon class="cls-4" points="72.2 149.05 76.21 167.44 79.85 155.09 72.2 149.05"/><polygon class="cls-7" points="72.2 149.05 79.85 155.09 88.49 147.57 72.2 149.05"/><polygon class="cls-4" points="88.49 147.57 72.2 149.05 75.62 138.96 88.49 147.57"/><polygon class="cls-1" points="75.62 138.96 72.2 149.05 65.41 139.34 75.62 138.96"/><polygon class="cls-2" points="75.62 138.96 65.41 139.34 72.17 129.55 75.62 138.96"/><polygon class="cls-1" points="72.17 129.55 75.62 138.96 87.31 129.8 72.17 129.55"/><polygon class="cls-2" points="72.17 129.55 87.31 129.8 80.15 123.64 72.17 129.55"/><polygon class="cls-3" points="72.17 129.55 80.15 123.64 77.03 113.32 72.17 129.55"/><polygon class="cls-2" points="77.03 113.32 65.39 110.3 72.17 129.55 77.03 113.32"/><polygon class="cls-4" points="75.62 138.96 87.31 129.8 85.56 137.32 75.62 138.96"/><polygon class="cls-1" points="75.62 138.96 88.49 147.57 85.56 137.32 75.62 138.96"/><polygon class="cls-8" points="85.56 137.32 87.31 129.8 88.49 147.57 85.56 137.32"/><polygon class="cls-4" points="79.85 155.09 88.49 147.57 85.63 155.52 79.85 155.09"/><polygon class="cls-8" points="79.85 155.09 85.63 155.52 76.21 167.44 79.85 155.09"/><polygon class="cls-2" points="77.03 113.32 80.15 123.64 84.33 122.94 77.03 113.32"/><polygon class="cls-1" points="84.33 122.94 87.31 129.8 80.15 123.64 84.33 122.94"/><path class="cls-4" d="M397.22,331.83c.3-.12,10.83,10.37,10.83,10.37l-7.49,1Z" transform="translate(-331.84 -174.75)"/><polygon class="cls-1" points="65.37 157.08 65.37 169 68.72 168.42 65.37 157.08"/><polygon class="cls-1" points="58.63 149.05 65.47 157.08 54.64 167.44 58.63 149.05"/><polygon class="cls-4" points="58.63 149.05 54.64 167.44 50.99 155.09 58.63 149.05"/><polygon class="cls-7" points="58.63 149.05 50.99 155.09 42.36 147.57 58.63 149.05"/><polygon class="cls-4" points="42.36 147.57 58.63 149.05 55.23 138.96 42.36 147.57"/><polygon class="cls-1" points="55.23 138.96 58.63 149.05 65.41 139.34 55.23 138.96"/><polygon class="cls-2" points="55.23 138.96 65.41 139.34 58.66 129.55 55.23 138.96"/><polygon class="cls-1" points="58.66 129.55 55.23 138.96 43.54 129.8 58.66 129.55"/><polygon class="cls-2" points="58.66 129.55 43.54 129.8 50.7 123.64 58.66 129.55"/><polygon class="cls-3" points="58.66 129.55 50.7 123.64 53.81 113.32 58.66 129.55"/><polygon class="cls-2" points="53.81 113.32 65.39 110.3 58.66 129.55 53.81 113.32"/><polygon class="cls-4" points="55.23 138.96 43.54 129.8 45.28 137.32 55.23 138.96"/><polygon class="cls-1" points="55.23 138.96 42.36 147.57 45.28 137.32 55.23 138.96"/><polygon class="cls-8" points="45.28 137.32 43.54 129.8 42.36 147.57 45.28 137.32"/><polygon class="cls-4" points="50.99 155.09 42.36 147.57 45.21 155.52 50.99 155.09"/><polygon class="cls-8" points="50.99 155.09 45.21 155.52 54.64 167.44 50.99 155.09"/><polygon class="cls-2" points="53.81 113.32 50.7 123.64 46.51 122.94 53.81 113.32"/><polygon class="cls-1" points="46.51 122.94 43.54 129.8 50.7 123.64 46.51 122.94"/><path class="cls-4" d="M397.31,331.83c-.3-.12-10.83,10.37-10.83,10.37l7.49,1Z" transform="translate(-331.84 -174.75)"/><polygon class="cls-1" points="65.47 157.08 65.47 169 62.12 168.42 65.47 157.08"/><circle class="cls-8" cx="65.47" cy="145.65" r="0.67"/><polygon class="cls-8" points="65.47 144.78 65.51 145.43 65.68 144.8 65.57 145.44 65.87 144.85 65.64 145.46 66.05 144.93 65.69 145.49 66.21 145.05 65.74 145.54 66.35 145.19 65.78 145.59 66.45 145.35 65.81 145.64 66.52 145.52 65.83 145.7 66.55 145.7 65.83 145.76 66.54 145.89 65.82 145.82 66.49 146.06 65.8 145.88 66.4 146.23 65.77 145.94 66.28 146.38 65.72 145.98 66.14 146.51 65.67 146.02 65.97 146.61 65.61 146.05 65.78 146.68 65.54 146.06 65.58 146.71 65.47 146.07 65.37 146.71 65.41 146.06 65.17 146.68 65.34 146.05 64.98 146.61 65.28 146.02 64.81 146.51 65.23 145.98 64.66 146.38 65.18 145.94 64.54 146.23 65.15 145.88 64.46 146.06 65.13 145.82 64.41 145.89 65.12 145.76 64.4 145.7 65.12 145.7 64.43 145.52 65.14 145.64 64.5 145.35 65.16 145.59 64.6 145.19 65.2 145.54 64.73 145.05 65.25 145.49 64.89 144.93 65.31 145.46 65.07 144.85 65.37 145.44 65.27 144.8 65.44 145.43 65.47 144.78"/><path class="cls-8" d="M397.27,319a3.5,3.5,0,0,1,2.87,1.33,3.61,3.61,0,0,1-5.75,0,3.53,3.53,0,0,1,2.88-1.33m0-.28a3.76,3.76,0,0,0-3,1.5l-.08.11.08.11a3.78,3.78,0,0,0,6,0l.08-.11-.08-.11a3.76,3.76,0,0,0-3-1.5Z" transform="translate(-331.84 -174.75)"/><path class="cls-8" d="M397.27,319a3.5,3.5,0,0,1,2.87,1.33,4.75,4.75,0,0,0-2.86-1.1,4.85,4.85,0,0,0-2.89,1.1,3.53,3.53,0,0,1,2.88-1.33m0-.28a3.76,3.76,0,0,0-3,1.5.18.18,0,0,0,.25.25,5.06,5.06,0,0,1,5.53,0,.18.18,0,0,0,.25-.25,3.76,3.76,0,0,0-3-1.5Z" transform="translate(-331.84 -174.75)"/><path class="cls-8" d="M396.83,318.86H397l-.84-3,.65,3Z" transform="translate(-331.84 -174.75)"/><path class="cls-8" d="M397.16,318.84l-.49-3.74.29,3.75Z" transform="translate(-331.84 -174.75)"/><path class="cls-8" d="M396.75,318.87l-1-2.43.84,2.46Z" transform="translate(-331.84 -174.75)"/><path class="cls-8" d="M398,318.9l.81-2.49-1,2.47Z" transform="translate(-331.84 -174.75)"/><path class="cls-8" d="M397.76,318.87l.63-3-.82,3Z" transform="translate(-331.84 -174.75)"/><path class="cls-8" d="M397.26,318.83h.1l-.1-4.61-.1,4.61Z" transform="translate(-331.84 -174.75)"/><path class="cls-8" d="M397.56,318.86l.31-3.77-.5,3.75Z" transform="translate(-331.84 -174.75)"/><path class="cls-8" d="M396.55,318.91l-1.18-2,1,2Z" transform="translate(-331.84 -174.75)"/><path class="cls-8" d="M391.09,323l4.07-1.63-.12-.09Z" transform="translate(-331.84 -174.75)"/><path class="cls-8" d="M395,319.57l.12-.09-1.25-.54Z" transform="translate(-331.84 -174.75)"/><path class="cls-8" d="M395.36,321.44l-.14-.08-4.66,2.32Z" transform="translate(-331.84 -174.75)"/><path class="cls-8" d="M395.75,319.15l-1.34-.91,1.18,1Z" transform="translate(-331.84 -174.75)"/><path class="cls-8" d="M395.22,319.44l.13-.09-1.27-.64Z" transform="translate(-331.84 -174.75)"/><path class="cls-8" d="M395.4,319.33l.15-.08-1.31-.74h0Z" transform="translate(-331.84 -174.75)"/><path class="cls-8" d="M396,319.07,394.62,318l1.16,1.18Z" transform="translate(-331.84 -174.75)"/><path class="cls-8" d="M396.35,318.95l-1.26-1.64,1.08,1.7Z" transform="translate(-331.84 -174.75)"/><path class="cls-8" d="M396.15,319l-1.3-1.38,1.12,1.44Z" transform="translate(-331.84 -174.75)"/><polygon class="cls-8" points="69.83 145.64 68.44 145.61 68.47 145.65 68.44 145.69 69.83 145.64"/><path class="cls-8" d="M400,320l1.22-.24-1.3.15Z" transform="translate(-331.84 -174.75)"/><path class="cls-8" d="M399.49,321.23l-.12.09,4,1.56Z" transform="translate(-331.84 -174.75)"/><path class="cls-8" d="M400.29,320.24l1.15-.13-1.35,0S400.15,320.2,400.29,320.24Z" transform="translate(-331.84 -174.75)"/><path class="cls-8" d="M399.36,319.48l.12.09,1.2-.49Z" transform="translate(-331.84 -174.75)"/><path class="cls-8" d="M400.45,318.71l-1.28.65.12.07h0Z" transform="translate(-331.84 -174.75)"/><path class="cls-8" d="M399.31,321.36l-.14.08,4.42,2.31Z" transform="translate(-331.84 -174.75)"/><path class="cls-8" d="M398.35,319l1.07-1.71L398.17,319Z" transform="translate(-331.84 -174.75)"/><path class="cls-8" d="M398.53,319h0l1.11-1.39L398.37,319Z" transform="translate(-331.84 -174.75)"/><path class="cls-8" d="M398.16,319l1-2.08-1.14,2Z" transform="translate(-331.84 -174.75)"/><path class="cls-8" d="M398.74,319.14l1.14-1.17-1.3,1.1Z" transform="translate(-331.84 -174.75)"/><path class="cls-8" d="M398.9,319.28l1.21-1-1.33.88C398.83,319.18,398.88,319.2,398.9,319.28Z" transform="translate(-331.84 -174.75)"/><path class="cls-8" d="M399.54,319.62l.11.09,1.24-.4Z" transform="translate(-331.84 -174.75)"/><path class="cls-8" d="M399.84,319.86l1.18-.35-1.28.26Z" transform="translate(-331.84 -174.75)"/><path class="cls-8" d="M399.12,319.33l1.26-.87-.11.06-1.29.73Z" transform="translate(-331.84 -174.75)"/><path class="cls-8" d="M397.26,322h-.1l.11,1.77.09-1.77Z" transform="translate(-331.84 -174.75)"/><path class="cls-8" d="M398,321.89l1.11,1.85-.92-1.89Z" transform="translate(-331.84 -174.75)"/><path class="cls-8" d="M398.38,321.79l1.83,1.94-1.65-2Z" transform="translate(-331.84 -174.75)"/><path class="cls-8" d="M397.77,321.93l.84,1.82L398,321.9Z" transform="translate(-331.84 -174.75)"/><path class="cls-8" d="M396.76,321.93l-.37,1.79.57-1.77Z" transform="translate(-331.84 -174.75)"/><path class="cls-8" d="M397,321.95l-.13,1.77.33-1.76Z" transform="translate(-331.84 -174.75)"/><path class="cls-8" d="M397.37,322l.33,1.77-.13-1.78Z" transform="translate(-331.84 -174.75)"/><path class="cls-8" d="M397.57,321.95l.59,1.78-.4-1.8Z" transform="translate(-331.84 -174.75)"/><path class="cls-8" d="M398.18,321.85l1.44,1.9-1.26-2Z" transform="translate(-331.84 -174.75)"/><path class="cls-8" d="M394.89,319.67l.08-.06-1.22-.37,1.11.46Z" transform="translate(-331.84 -174.75)"/><path class="cls-8" d="M400.1,320.66l1.82.14-1.75-.22Z" transform="translate(-331.84 -174.75)"/><path class="cls-8" d="M398.58,321.73l2.23,2-2.07-2.07Z" transform="translate(-331.84 -174.75)"/><path class="cls-8" d="M399.74,321l2.78.6-2.68-.69Z" transform="translate(-331.84 -174.75)"/><path class="cls-8" d="M398.78,321.64l2.93,2.1-2.77-2.17Z" transform="translate(-331.84 -174.75)"/><path class="cls-8" d="M399.55,321.18l3.54,1.23-3.43-1.32Z" transform="translate(-331.84 -174.75)"/><path class="cls-8" d="M399.12,321.47l-.14.08,3.7,2.19h0Z" transform="translate(-331.84 -174.75)"/><path class="cls-8" d="M399.93,320.85l2.24.26-2.16-.35Z" transform="translate(-331.84 -174.75)"/><path class="cls-8" d="M394.35,320.57l-1.68.16,1.75-.08Z" transform="translate(-331.84 -174.75)"/><path class="cls-8" d="M394.69,320.94l-2.62.65,2.72-.56Z" transform="translate(-331.84 -174.75)"/><polygon class="cls-8" points="62.37 145.65 62.4 145.61 61.09 145.64 62.4 145.69 62.37 145.65"/><path class="cls-8" d="M394.52,320.76l-2.15.37,2.23-.28Z" transform="translate(-331.84 -174.75)"/><path class="cls-8" d="M396.56,321.9l-.58,1.82.77-1.79Z" transform="translate(-331.84 -174.75)"/><path class="cls-8" d="M394.78,319.77l-1.24-.29,1.14.38Z" transform="translate(-331.84 -174.75)"/><path class="cls-8" d="M394.6,319.94l-1.28-.15,1.19.24Z" transform="translate(-331.84 -174.75)"/><path class="cls-8" d="M394.42,320.14l-1.3-.09,1.23.17Z" transform="translate(-331.84 -174.75)"/><path class="cls-8" d="M396.17,321.8l-1.25,1.93,1.43-1.88Z" transform="translate(-331.84 -174.75)"/><path class="cls-8" d="M395,321.18l-.11-.09-3.29,1.14Z" transform="translate(-331.84 -174.75)"/><path class="cls-8" d="M396,321.74l-1.65,2,1.82-1.95Z" transform="translate(-331.84 -174.75)"/><path class="cls-8" d="M396.36,321.86l-.89,1.86,1.08-1.82Z" transform="translate(-331.84 -174.75)"/><path class="cls-8" d="M395.78,321.66l-2.08,2.06,2.24-2Z" transform="translate(-331.84 -174.75)"/><path class="cls-8" d="M395.41,321.47l-3.48,2.25h0l3.63-2.18Z" transform="translate(-331.84 -174.75)"/><path class="cls-8" d="M395.59,321.57l-2.73,2.17,2.89-2.1Z" transform="translate(-331.84 -174.75)"/><path class="cls-8" d="M398.36,319.73l-.23,0a1.07,1.07,0,1,1-1.64,0l-.24,0a1.23,1.23,0,0,0-.18.64,1.24,1.24,0,0,0,2.49,0A1.23,1.23,0,0,0,398.36,319.73Z" transform="translate(-331.84 -174.75)"/></svg>