<svg id="Layer_1" data-name="Layer 1" xmlns="http://www.w3.org/2000/svg" viewBox="0 0 26.63 88.62"><defs><style>.cls-1{fill:#c49a6c;}.cls-2{fill:#764d2a;}.cls-3{fill:#8b5f3d;}.cls-4{fill:#a97d51;}.cls-5{fill:#603b17;}.cls-6{fill:#3c2415;}.cls-7{fill:#ec2227;}.cls-8{fill:#724d34;}.cls-9{fill:#3c2517;}</style></defs><title>C_stack_light</title><path class="cls-1" d="M400.84,332.89h-.33l-.3-1.29A6.69,6.69,0,0,0,399,331a5.24,5.24,0,0,0-2.11-.42c-2.94,0-4.89,2.2-4.89,5.52s1.94,5.42,4.72,5.42a6,6,0,0,0,3.46-1.19l.37-1.45h.33a9.26,9.26,0,0,0-.19,1.8V341a7.84,7.84,0,0,1-1.24.54,7.39,7.39,0,0,1-2.67.52,5.89,5.89,0,0,1-6-6,5.62,5.62,0,0,1,6-5.86,12.16,12.16,0,0,1,3.76.7Z" transform="translate(-383.24 -262.31)"/><rect class="cls-1" x="7.7" y="58.1" width="12.15" height="0.73"/><rect class="cls-1" x="7.7" y="87.89" width="12.15" height="0.73"/><path class="cls-2" d="M398.72,284.28l5.72.43,1.27-1.64s-6.85-.79-6.85-.69S398.72,284.28,398.72,284.28Z" transform="translate(-383.24 -262.31)"/><polygon class="cls-3" points="21.2 22.39 24.69 25.85 26.63 25.21 22.47 20.75 21.2 22.39"/><polygon class="cls-4" points="25.45 28.43 22.89 32.94 24.5 28.51 25.45 28.43"/><path class="cls-2" d="M398.2,281l2.7-3.8,1.66.56s-3.75,4.81-3.75,4.71S398.2,281,398.2,281Z" transform="translate(-383.24 -262.31)"/><polygon class="cls-3" points="17.66 14.86 18.54 7.72 19.85 7.98 19.32 15.42 17.66 14.86"/><polygon class="cls-4" points="18.63 5.19 16.38 0 17.82 5.33 18.63 5.19"/><path class="cls-3" d="M398.93,285.08l5.72,5.17,1.81-.73s-7.39-6.46-7.39-6.36S398.93,285.08,398.93,285.08Z" transform="translate(-383.24 -262.31)"/><polygon class="cls-2" points="21.41 27.94 20.74 34.97 21.51 35.79 23.21 27.21 21.41 27.94"/><polygon class="cls-4" points="20.41 38.84 16.2 45.06 19.97 38.39 20.41 38.84"/><path class="cls-5" d="M398.7,282.08l4.56-.59,1.14,1.12s-5.42.92-5.42.88Z" transform="translate(-383.24 -262.31)"/><polygon class="cls-2" points="20.02 19.18 22.3 16.56 24.16 16.99 21.16 20.3 20.02 19.18"/><polygon class="cls-3" points="22.91 15.01 20.59 12.02 22 15.33 22.91 15.01"/><polygon class="cls-2" points="18.63 5.19 19.85 7.98 18.54 7.72 17.82 5.33 18.63 5.19"/><polygon class="cls-5" points="22 15.33 22.3 16.56 24.16 16.99 22.91 15.01 22 15.33"/><polygon class="cls-2" points="24.69 25.85 24.5 28.51 25.45 28.43 26.63 25.21 24.69 25.85"/><path class="cls-3" d="M404.76,298.1l-1.1,3a4.36,4.36,0,0,1-.44-.45c0-.06.76-3.42.76-3.42Z" transform="translate(-383.24 -262.31)"/><path class="cls-2" d="M394.39,284.28l-5.72.43-1.27-1.64s6.85-.79,6.85-.69S394.39,284.28,394.39,284.28Z" transform="translate(-383.24 -262.31)"/><polygon class="cls-3" points="5.43 22.39 1.94 25.85 0 25.21 4.16 20.75 5.43 22.39"/><polygon class="cls-4" points="1.18 28.43 3.75 32.94 2.13 28.51 1.18 28.43"/><path class="cls-2" d="M394.91,281l-2.7-3.8-1.66.56s3.75,4.81,3.75,4.71S394.91,281,394.91,281Z" transform="translate(-383.24 -262.31)"/><polygon class="cls-3" points="8.97 14.86 8.09 7.72 6.78 7.98 7.31 15.42 8.97 14.86"/><polygon class="cls-4" points="8 5.19 10.25 0 8.81 5.33 8 5.19"/><path class="cls-3" d="M394.19,285.08l-5.72,5.17-1.81-.73s7.39-6.46,7.39-6.36S394.19,285.08,394.19,285.08Z" transform="translate(-383.24 -262.31)"/><polygon class="cls-2" points="5.22 27.94 5.89 34.97 5.12 35.79 3.42 27.21 5.22 27.94"/><polygon class="cls-4" points="6.22 38.84 10.43 45.06 6.66 38.39 6.22 38.84"/><path class="cls-5" d="M394.42,282.08l-4.56-.59-1.14,1.12s5.42.92,5.42.88Z" transform="translate(-383.24 -262.31)"/><polygon class="cls-2" points="6.61 19.18 4.33 16.56 2.47 16.99 5.47 20.3 6.61 19.18"/><polygon class="cls-3" points="3.72 15.01 6.04 12.02 4.63 15.33 3.72 15.01"/><polygon class="cls-2" points="8 5.19 6.78 7.98 8.09 7.72 8.81 5.33 8 5.19"/><polygon class="cls-5" points="4.63 15.33 4.33 16.56 2.47 16.99 3.72 15.01 4.63 15.33"/><polygon class="cls-2" points="1.94 25.85 2.13 28.51 1.18 28.43 0 25.21 1.94 25.85"/><path class="cls-3" d="M388.36,298.1l1.1,3a4.36,4.36,0,0,0,.44-.45c0-.06-.76-3.42-.76-3.42Z" transform="translate(-383.24 -262.31)"/><path class="cls-6" d="M394.56,286.5l-.31-1.78,2.24-1.06,2.45.57s-.65,3.26-.74,3.23Z" transform="translate(-383.24 -262.31)"/><polygon class="cls-7" points="11.94 26.37 13.32 28.38 14.7 26.38 11.94 26.37"/><polygon class="cls-7" points="14.7 30.36 13.32 28.38 11.94 30.36 14.7 30.36"/><polygon class="cls-4" points="11.94 26.37 14.7 26.38 13.32 22.46 11.94 26.37"/><polygon class="cls-5" points="11.94 30.36 14.7 30.36 13.33 31.99 11.94 30.36"/><polygon class="cls-4" points="13.31 22.15 13.35 17.7 11.16 18.88 13.31 22.15"/><polygon class="cls-3" points="11.16 18.88 10.76 20.72 13.31 22.15 11.16 18.88"/><polygon class="cls-5" points="10.76 20.72 13.31 22.15 10.95 22.77 10.76 20.72"/><polygon class="cls-3" points="13.31 22.15 13.35 17.7 15.54 18.88 13.31 22.15"/><polygon class="cls-2" points="15.54 18.88 15.94 20.72 13.31 22.15 15.54 18.88"/><polygon class="cls-5" points="15.94 20.72 13.31 22.15 15.69 22.79 15.94 20.72"/><polygon class="cls-5" points="12.93 17.63 12.36 16.88 13.19 15.8 11.91 16.78 11.81 18.26 12.93 17.63"/><polygon class="cls-5" points="13.83 17.65 14.48 16.88 13.65 15.8 14.93 16.78 14.89 18.23 13.83 17.65"/><polygon class="cls-2" points="14.7 30.36 13.31 31.99 15.52 34.1 14.7 30.36"/><polygon class="cls-5" points="14.7 30.36 15.52 34.1 16.26 31.59 14.7 30.36"/><polygon class="cls-8" points="14.7 30.36 16.26 31.59 18.02 30.05 14.7 30.36"/><polygon class="cls-5" points="18.02 30.05 14.7 30.36 15.4 28.3 18.02 30.05"/><polygon class="cls-2" points="15.4 28.3 14.7 30.36 13.32 28.38 15.4 28.3"/><polygon class="cls-3" points="15.4 28.3 13.32 28.38 14.7 26.38 15.4 28.3"/><polygon class="cls-2" points="14.7 26.38 15.4 28.3 17.78 26.43 14.7 26.38"/><polygon class="cls-3" points="14.7 26.38 17.78 26.43 16.32 25.18 14.7 26.38"/><polygon class="cls-4" points="14.7 26.38 16.32 25.18 15.69 23.08 14.7 26.38"/><polygon class="cls-3" points="15.69 23.08 13.32 22.46 14.7 26.38 15.69 23.08"/><polygon class="cls-5" points="15.4 28.3 17.78 26.43 17.43 27.97 15.4 28.3"/><polygon class="cls-2" points="15.4 28.3 18.02 30.05 17.43 27.97 15.4 28.3"/><polygon class="cls-9" points="17.43 27.97 17.78 26.43 18.02 30.05 17.43 27.97"/><polygon class="cls-5" points="16.26 31.59 18.02 30.05 17.44 31.67 16.26 31.59"/><polygon class="cls-9" points="16.26 31.59 17.44 31.67 15.52 34.1 16.26 31.59"/><polygon class="cls-3" points="15.69 23.08 16.32 25.18 17.18 25.04 15.69 23.08"/><polygon class="cls-2" points="17.18 25.04 17.78 26.43 16.32 25.18 17.18 25.04"/><path class="cls-5" d="M396.56,294.3c.06,0,2.21,2.11,2.21,2.11l-1.52.2Z" transform="translate(-383.24 -262.31)"/><polygon class="cls-2" points="13.31 31.99 13.31 34.42 14 34.3 13.31 31.99"/><polygon class="cls-2" points="11.94 30.36 13.33 31.99 11.13 34.1 11.94 30.36"/><polygon class="cls-5" points="11.94 30.36 11.13 34.1 10.38 31.59 11.94 30.36"/><polygon class="cls-8" points="11.94 30.36 10.38 31.59 8.63 30.05 11.94 30.36"/><polygon class="cls-5" points="8.63 30.05 11.94 30.36 11.25 28.3 8.63 30.05"/><polygon class="cls-2" points="11.25 28.3 11.94 30.36 13.32 28.38 11.25 28.3"/><polygon class="cls-3" points="11.25 28.3 13.32 28.38 11.95 26.38 11.25 28.3"/><polygon class="cls-2" points="11.95 26.38 11.25 28.3 8.87 26.43 11.95 26.38"/><polygon class="cls-3" points="11.95 26.38 8.87 26.43 10.32 25.18 11.95 26.38"/><polygon class="cls-4" points="11.95 26.38 10.32 25.18 10.96 23.08 11.95 26.38"/><polygon class="cls-3" points="10.96 23.08 13.32 22.46 11.95 26.38 10.96 23.08"/><polygon class="cls-5" points="11.25 28.3 8.87 26.43 9.22 27.97 11.25 28.3"/><polygon class="cls-2" points="11.25 28.3 8.63 30.05 9.22 27.97 11.25 28.3"/><polygon class="cls-9" points="9.22 27.97 8.87 26.43 8.63 30.05 9.22 27.97"/><polygon class="cls-5" points="10.38 31.59 8.63 30.05 9.21 31.67 10.38 31.59"/><polygon class="cls-9" points="10.38 31.59 9.21 31.67 11.13 34.1 10.38 31.59"/><polygon class="cls-3" points="10.96 23.08 10.32 25.18 9.47 25.04 10.96 23.08"/><polygon class="cls-2" points="9.47 25.04 8.87 26.43 10.32 25.18 9.47 25.04"/><path class="cls-5" d="M396.58,294.3c-.06,0-2.21,2.11-2.21,2.11l1.52.2Z" transform="translate(-383.24 -262.31)"/><polygon class="cls-2" points="13.33 31.99 13.33 34.42 12.65 34.3 13.33 31.99"/><circle class="cls-9" cx="13.33" cy="29.66" r="0.14"/><polygon class="cls-9" points="13.33 29.49 13.34 29.62 13.38 29.49 13.36 29.62 13.41 29.5 13.37 29.62 13.45 29.52 13.38 29.63 13.48 29.54 13.39 29.64 13.51 29.57 13.4 29.65 13.53 29.6 13.4 29.66 13.55 29.64 13.41 29.67 13.55 29.67 13.41 29.69 13.55 29.71 13.4 29.7 13.54 29.75 13.4 29.71 13.52 29.78 13.39 29.72 13.5 29.81 13.38 29.73 13.47 29.84 13.37 29.74 13.43 29.86 13.36 29.74 13.4 29.87 13.35 29.75 13.36 29.88 13.33 29.75 13.31 29.88 13.32 29.75 13.27 29.87 13.31 29.74 13.23 29.86 13.29 29.74 13.2 29.84 13.28 29.73 13.17 29.81 13.28 29.72 13.14 29.78 13.27 29.71 13.13 29.75 13.26 29.7 13.12 29.71 13.26 29.69 13.12 29.67 13.26 29.67 13.12 29.64 13.27 29.66 13.13 29.6 13.27 29.65 13.16 29.57 13.28 29.64 13.18 29.54 13.29 29.63 13.22 29.52 13.3 29.62 13.25 29.5 13.31 29.62 13.29 29.49 13.33 29.62 13.33 29.49"/><path class="cls-9" d="M396.57,291.7a.71.71,0,0,1,.58.27.73.73,0,0,1-1.17,0,.72.72,0,0,1,.59-.27m0-.06a.77.77,0,0,0-.61.31l0,0,0,0a.77.77,0,0,0,1.23,0l0,0,0,0a.77.77,0,0,0-.61-.31Z" transform="translate(-383.24 -262.31)"/><path class="cls-9" d="M396.57,291.7a.71.71,0,0,1,.58.27,1,1,0,0,0-.58-.22,1,1,0,0,0-.59.22.72.72,0,0,1,.59-.27m0-.06a.77.77,0,0,0-.61.31,0,0,0,0,0,0,0h0a1,1,0,0,1,1.13,0h0a0,0,0,0,0,0,0,.77.77,0,0,0-.61-.31Z" transform="translate(-383.24 -262.31)"/><path class="cls-9" d="M396.48,291.66h0l-.17-.61.13.61Z" transform="translate(-383.24 -262.31)"/><path class="cls-9" d="M396.54,291.65l-.1-.76.06.76Z" transform="translate(-383.24 -262.31)"/><path class="cls-9" d="M396.46,291.66l-.21-.49.17.5Z" transform="translate(-383.24 -262.31)"/><path class="cls-9" d="M396.71,291.67l.17-.51-.21.5Z" transform="translate(-383.24 -262.31)"/><path class="cls-9" d="M396.67,291.66l.13-.62-.17.61Z" transform="translate(-383.24 -262.31)"/><path class="cls-9" d="M396.56,291.65h0l0-.94,0,.94Z" transform="translate(-383.24 -262.31)"/><path class="cls-9" d="M396.63,291.66l.06-.77-.1.76Z" transform="translate(-383.24 -262.31)"/><path class="cls-9" d="M396.42,291.67l-.24-.41.2.41Z" transform="translate(-383.24 -262.31)"/><path class="cls-9" d="M395.31,292.49l.83-.33,0,0Z" transform="translate(-383.24 -262.31)"/><path class="cls-9" d="M396.11,291.8l0,0-.25-.11Z" transform="translate(-383.24 -262.31)"/><path class="cls-9" d="M396.18,292.19l0,0-.95.47Z" transform="translate(-383.24 -262.31)"/><path class="cls-9" d="M396.26,291.72l-.27-.19.24.2Z" transform="translate(-383.24 -262.31)"/><path class="cls-9" d="M396.15,291.78l0,0-.26-.13Z" transform="translate(-383.24 -262.31)"/><path class="cls-9" d="M396.19,291.75l0,0-.27-.15h0Z" transform="translate(-383.24 -262.31)"/><path class="cls-9" d="M396.3,291.7l-.27-.23.24.24Z" transform="translate(-383.24 -262.31)"/><path class="cls-9" d="M396.38,291.68l-.26-.33.22.35Z" transform="translate(-383.24 -262.31)"/><path class="cls-9" d="M396.34,291.69l-.26-.28.23.29Z" transform="translate(-383.24 -262.31)"/><polygon class="cls-9" points="14.22 29.66 13.94 29.66 13.95 29.66 13.94 29.67 14.22 29.66"/><path class="cls-9" d="M397.12,291.9l.25,0-.26,0Z" transform="translate(-383.24 -262.31)"/><path class="cls-9" d="M397,292.14l0,0,.82.32Z" transform="translate(-383.24 -262.31)"/><path class="cls-9" d="M397.18,291.94l.24,0h-.28Z" transform="translate(-383.24 -262.31)"/><path class="cls-9" d="M397,291.79l0,0,.24-.1Z" transform="translate(-383.24 -262.31)"/><path class="cls-9" d="M397.21,291.63l-.26.13h0Z" transform="translate(-383.24 -262.31)"/><path class="cls-9" d="M397,292.17l0,0,.9.47Z" transform="translate(-383.24 -262.31)"/><path class="cls-9" d="M396.79,291.69l.22-.35-.26.34Z" transform="translate(-383.24 -262.31)"/><path class="cls-9" d="M396.82,291.7h0l.23-.28-.26.27Z" transform="translate(-383.24 -262.31)"/><path class="cls-9" d="M396.75,291.68l.19-.42-.23.41Z" transform="translate(-383.24 -262.31)"/><path class="cls-9" d="M396.87,291.72l.23-.24-.26.22Z" transform="translate(-383.24 -262.31)"/><path class="cls-9" d="M396.9,291.75l.25-.21-.27.18S396.9,291.73,396.9,291.75Z" transform="translate(-383.24 -262.31)"/><path class="cls-9" d="M397,291.81l0,0,.25-.08Z" transform="translate(-383.24 -262.31)"/><path class="cls-9" d="M397.09,291.86l.24-.07-.26.05Z" transform="translate(-383.24 -262.31)"/><path class="cls-9" d="M396.94,291.75l.26-.18h0l-.26.15Z" transform="translate(-383.24 -262.31)"/><path class="cls-9" d="M396.56,292.29h0l0,.36,0-.36Z" transform="translate(-383.24 -262.31)"/><path class="cls-9" d="M396.71,292.28l.23.38-.19-.39Z" transform="translate(-383.24 -262.31)"/><path class="cls-9" d="M396.79,292.26l.37.39-.34-.41Z" transform="translate(-383.24 -262.31)"/><path class="cls-9" d="M396.67,292.28l.17.37-.13-.38Z" transform="translate(-383.24 -262.31)"/><path class="cls-9" d="M396.46,292.28l-.08.36.12-.36Z" transform="translate(-383.24 -262.31)"/><path class="cls-9" d="M396.5,292.29l0,.36.07-.36Z" transform="translate(-383.24 -262.31)"/><path class="cls-9" d="M396.59,292.29l.07.36,0-.36Z" transform="translate(-383.24 -262.31)"/><path class="cls-9" d="M396.63,292.29l.12.36-.08-.37Z" transform="translate(-383.24 -262.31)"/><path class="cls-9" d="M396.75,292.27l.29.39-.26-.4Z" transform="translate(-383.24 -262.31)"/><path class="cls-9" d="M396.08,291.83h0l-.25-.08.23.09Z" transform="translate(-383.24 -262.31)"/><path class="cls-9" d="M397.14,292l.37,0-.36,0Z" transform="translate(-383.24 -262.31)"/><path class="cls-9" d="M396.83,292.24l.45.41-.42-.42Z" transform="translate(-383.24 -262.31)"/><path class="cls-9" d="M397.07,292.1l.57.12-.55-.14Z" transform="translate(-383.24 -262.31)"/><path class="cls-9" d="M396.87,292.23l.6.43-.56-.44Z" transform="translate(-383.24 -262.31)"/><path class="cls-9" d="M397,292.13l.72.25-.7-.27Z" transform="translate(-383.24 -262.31)"/><path class="cls-9" d="M396.94,292.19l0,0,.75.45h0Z" transform="translate(-383.24 -262.31)"/><path class="cls-9" d="M397.11,292.07l.46.05-.44-.07Z" transform="translate(-383.24 -262.31)"/><path class="cls-9" d="M396,292l-.34,0,.36,0Z" transform="translate(-383.24 -262.31)"/><path class="cls-9" d="M396,292.08l-.53.13.55-.11Z" transform="translate(-383.24 -262.31)"/><polygon class="cls-9" points="12.7 29.66 12.71 29.66 12.44 29.66 12.71 29.67 12.7 29.66"/><path class="cls-9" d="M396,292l-.44.07.45-.06Z" transform="translate(-383.24 -262.31)"/><path class="cls-9" d="M396.42,292.28l-.12.37.16-.36Z" transform="translate(-383.24 -262.31)"/><path class="cls-9" d="M396.06,291.84l-.25-.06.23.08Z" transform="translate(-383.24 -262.31)"/><path class="cls-9" d="M396,291.88l-.26,0,.24,0Z" transform="translate(-383.24 -262.31)"/><path class="cls-9" d="M396,291.92l-.27,0,.25,0Z" transform="translate(-383.24 -262.31)"/><path class="cls-9" d="M396.34,292.26l-.25.39.29-.38Z" transform="translate(-383.24 -262.31)"/><path class="cls-9" d="M396.1,292.13l0,0-.67.23Z" transform="translate(-383.24 -262.31)"/><path class="cls-9" d="M396.3,292.25l-.34.41.37-.4Z" transform="translate(-383.24 -262.31)"/><path class="cls-9" d="M396.38,292.27l-.18.38.22-.37Z" transform="translate(-383.24 -262.31)"/><path class="cls-9" d="M396.26,292.23l-.42.42.46-.41Z" transform="translate(-383.24 -262.31)"/><path class="cls-9" d="M396.19,292.19l-.71.46h0l.74-.44Z" transform="translate(-383.24 -262.31)"/><path class="cls-9" d="M396.22,292.21l-.56.44.59-.43Z" transform="translate(-383.24 -262.31)"/><path class="cls-9" d="M396.79,291.84h0a.22.22,0,1,1-.33,0h0a.25.25,0,0,0,0,.13.25.25,0,0,0,.51,0A.25.25,0,0,0,396.79,291.84Z" transform="translate(-383.24 -262.31)"/></svg>